<?xml version="1.0" standalone="no"?>
<!DOCTYPE svg PUBLIC "-//W3C//DTD SVG 20010904//EN"
 "http://www.w3.org/TR/2001/REC-SVG-20010904/DTD/svg10.dtd">
<svg version="1.0" xmlns="http://www.w3.org/2000/svg"
 width="200.000000pt" height="200.000000pt" viewBox="0 0 200.000000 200.000000"
 preserveAspectRatio="xMidYMid meet">
<metadata>
Created by potrace 1.11, written by Peter Selinger 2001-2013
</metadata>
<g transform="translate(0.000000,200.000000) scale(0.100000,-0.100000)"
fill="#000000" stroke="none">
<path d="M239 1888 c-1 -7 -2 -38 -3 -68 l-1 -55 -50 -2 c-27 -1 -58 -2 -67
-2 -17 -1 -18 -48 -18 -831 l0 -830 832 2 833 3 -1 62 c-1 35 1 64 5 64 3 1
33 2 66 3 l60 1 3 833 2 832 -830 0 c-657 0 -830 -3 -831 -12z m1641 -40 c0
-18 1 -384 1 -813 l1 -780 -59 0 -58 0 0 747 c0 411 -4 750 -7 754 -4 4 -344
7 -755 7 l-748 0 1 51 c1 28 2 54 3 59 0 4 366 7 811 7 l810 0 0 -32z m-1650
-107 c3 -1 6 -340 6 -753 l0 -753 744 -1 c410 -1 750 -2 756 -3 11 -1 13 -95
2 -106 -4 -5 -1421 -9 -1600 -5 -17 0 -18 46 -18 813 l0 813 53 -2 c28 -1 54
-2 57 -3z m1496 0 c20 -1 20 -1 20 -743 l-1 -743 -745 0 -745 0 -1 740 c0 407
1 742 2 745 2 4 1403 5 1470 1z"/>
<path d="M930 1011 c0 -111 2 -131 15 -131 13 0 15 18 13 127 -2 90 -7 128
-15 131 -10 3 -13 -27 -13 -127z"/>
<path d="M990 1008 c0 -107 2 -128 15 -128 13 0 15 21 15 128 0 108 -2 129
-15 129 -13 0 -15 -21 -15 -129z"/>
<path d="M1170 1010 l0 -127 44 -1 c39 -1 45 2 58 29 8 16 14 42 12 57 -1 15
-2 35 -3 45 -2 27 -37 56 -60 50 -19 -5 -21 -1 -21 34 0 29 -4 40 -15 40 -13
0 -15 -21 -15 -127z m76 -1 c10 -17 7 -70 -5 -82 -22 -22 -46 25 -36 71 6 23
29 30 41 11z"/>
<path d="M388 1093 c-2 -16 -2 -70 0 -120 3 -73 7 -93 18 -93 10 0 14 13 14
50 0 50 0 50 30 48 29 -2 30 -4 30 -50 0 -36 4 -48 15 -48 18 0 17 -5 19 132
1 97 -1 108 -16 108 -15 0 -18 -9 -18 -48 0 -46 -1 -47 -30 -47 -29 -1 -30 0
-30 47 0 35 -4 48 -14 48 -9 0 -16 -12 -18 -27z"/>
<path d="M562 1050 c-49 -46 -22 -175 36 -168 52 6 72 110 31 162 -25 31 -38
33 -67 6z m52 -46 c11 -28 6 -61 -10 -75 -13 -10 -17 -10 -25 2 -10 16 -12 73
-2 82 11 12 31 7 37 -9z"/>
<path d="M681 1061 c-15 -10 -14 -123 2 -158 11 -25 52 -32 60 -10 4 10 6 10
6 0 1 -7 8 -13 16 -13 11 0 14 17 12 92 -1 63 -6 93 -14 96 -9 2 -13 -11 -13
-47 0 -27 -5 -62 -11 -78 -9 -25 -12 -26 -23 -11 -7 9 -14 43 -15 75 -3 66 -2
65 -20 54z"/>
<path d="M820 1043 c-24 -31 -26 -110 -3 -143 17 -23 55 -26 73 -5 15 18 3 38
-17 31 -16 -6 -43 10 -43 24 0 5 17 8 38 7 37 -2 37 -1 36 36 -1 38 -27 77
-50 77 -7 0 -22 -12 -34 -27z m60 -44 c0 -5 -11 -9 -25 -9 -27 0 -32 9 -13 28
12 12 38 -1 38 -19z"/>
<path d="M1069 1051 c-21 -16 -24 -28 -24 -81 0 -49 4 -64 19 -76 40 -29 85
-9 70 31 -5 12 -10 13 -20 4 -11 -9 -18 -8 -29 1 -22 18 -18 32 8 30 48 -4 57
0 57 26 0 38 -28 83 -51 84 -4 0 -17 -9 -30 -19z m51 -52 c0 -5 -11 -9 -25 -9
-27 0 -32 9 -13 28 12 12 38 -1 38 -19z"/>
<path d="M1321 1044 c-40 -51 -21 -156 30 -162 32 -4 54 20 41 44 -6 11 -11
13 -16 5 -11 -17 -33 -13 -39 8 -4 16 1 19 30 19 43 0 46 3 38 44 -8 44 -15
54 -41 62 -17 5 -27 0 -43 -20z m39 -52 c-29 -5 -36 4 -19 24 12 14 14 14 27
-3 11 -16 11 -18 -8 -21z"/>
<path d="M1451 1053 c-40 -35 -34 -154 9 -168 43 -14 84 21 54 46 -13 10 -17
10 -25 -2 -15 -23 -42 19 -35 55 8 38 13 43 36 29 14 -10 21 -9 30 2 9 11 7
18 -9 34 -26 26 -33 26 -60 4z"/>
<path d="M1560 1050 c-19 -19 -24 -44 -20 -105 2 -40 28 -68 57 -62 21 4 23 0
23 -34 0 -28 4 -39 15 -39 13 0 15 21 15 130 0 72 -4 130 -8 130 -4 0 -13 -5
-19 -11 -8 -8 -13 -8 -17 0 -10 16 -24 13 -46 -9z m54 -46 c17 -43 -10 -102
-35 -77 -12 12 -15 65 -5 82 10 16 33 14 40 -5z"/>
</g>
</svg>
